<svg xmlns="http://www.w3.org/2000/svg" width="800" height="500" viewBox="0 0 800 500">
  <defs>
    <linearGradient id="bg" x1="0" y1="0" x2="1" y2="1">
      <stop offset="0%" stop-color="#dbeafe"/>
      <stop offset="100%" stop-color="#eff6ff"/>
    </linearGradient>
  </defs>
  <rect width="800" height="500" rx="16" fill="url(#bg)" stroke="#bfdbfe" stroke-width="2"/>
  <!-- Header -->
  <rect x="30" y="30" width="740" height="60" rx="8" fill="#3b82f6" opacity="0.1"/>
  <text x="60" y="68" font-family="system-ui,sans-serif" font-size="18" font-weight="700" fill="#1e40af">RÉPUBLIQUE DU SÉNÉGAL</text>
  <text x="480" y="68" font-family="system-ui,sans-serif" font-size="14" fill="#2563eb">CARTE NATIONALE D'IDENTITÉ</text>
  <!-- Photo zone -->
  <rect x="50" y="120" width="160" height="200" rx="12" fill="#bfdbfe" stroke="#3b82f6" stroke-width="1.5" stroke-dasharray="6,4"/>
  <circle cx="130" cy="190" r="30" fill="#3b82f6" opacity="0.15"/>
  <circle cx="130" cy="178" r="12" fill="#3b82f6" opacity="0.3"/>
  <path d="M110,210 Q130,195 150,210" fill="#3b82f6" opacity="0.3"/>
  <text x="130" y="245" font-family="system-ui,sans-serif" font-size="11" fill="#3b82f6" text-anchor="middle">PHOTO</text>
  <!-- Info lines -->
  <rect x="240" y="130" width="200" height="14" rx="4" fill="#3b82f6" opacity="0.12"/>
  <rect x="240" y="160" width="260" height="14" rx="4" fill="#3b82f6" opacity="0.08"/>
  <rect x="240" y="190" width="180" height="14" rx="4" fill="#3b82f6" opacity="0.08"/>
  <rect x="240" y="220" width="300" height="14" rx="4" fill="#3b82f6" opacity="0.08"/>
  <rect x="240" y="260" width="150" height="14" rx="4" fill="#3b82f6" opacity="0.06"/>
  <!-- Barcode -->
  <rect x="50" y="370" width="700" height="70" rx="8" fill="white" stroke="#bfdbfe" stroke-width="1"/>
  <rect x="80" y="385" width="2" height="40" fill="#1e40af" opacity="0.3"/>
  <rect x="86" y="385" width="3" height="40" fill="#1e40af" opacity="0.2"/>
  <rect x="93" y="385" width="1" height="40" fill="#1e40af" opacity="0.4"/>
  <rect x="98" y="385" width="4" height="40" fill="#1e40af" opacity="0.15"/>
  <rect x="106" y="385" width="2" height="40" fill="#1e40af" opacity="0.3"/>
  <rect x="112" y="385" width="3" height="40" fill="#1e40af" opacity="0.2"/>
  <text x="400" y="470" font-family="system-ui,sans-serif" font-size="11" fill="#3b82f6" text-anchor="middle" opacity="0.6">Document de démonstration — DemDem Admin</text>
</svg>
