<svg xmlns="http://www.w3.org/2000/svg" width="800" height="500" viewBox="0 0 800 500">
  <defs>
    <linearGradient id="bg" x1="0" y1="0" x2="1" y2="1">
      <stop offset="0%" stop-color="#fef3c7"/>
      <stop offset="100%" stop-color="#fffbeb"/>
    </linearGradient>
  </defs>
  <rect width="800" height="500" rx="16" fill="url(#bg)" stroke="#fde68a" stroke-width="2"/>
  <!-- Header -->
  <rect x="30" y="30" width="740" height="60" rx="8" fill="#d97706" opacity="0.12"/>
  <text x="60" y="68" font-family="system-ui,sans-serif" font-size="18" font-weight="700" fill="#92400e">RÉPUBLIQUE DU SÉNÉGAL</text>
  <text x="550" y="68" font-family="system-ui,sans-serif" font-size="14" fill="#b45309">PERMIS DE CONDUIRE</text>
  <!-- Photo zone -->
  <rect x="50" y="120" width="160" height="200" rx="12" fill="#fde68a" stroke="#d97706" stroke-width="1.5" stroke-dasharray="6,4"/>
  <text x="95" y="215" font-family="system-ui,sans-serif" font-size="12" fill="#d97706" text-anchor="middle" transform="translate(35,0)">PHOTO</text>
  <circle cx="130" cy="190" r="30" fill="#d97706" opacity="0.15"/>
  <circle cx="130" cy="178" r="12" fill="#d97706" opacity="0.3"/>
  <path d="M110,210 Q130,195 150,210" fill="#d97706" opacity="0.3"/>
  <!-- Info lines -->
  <rect x="240" y="130" width="180" height="14" rx="4" fill="#d97706" opacity="0.15"/>
  <rect x="240" y="160" width="250" height="14" rx="4" fill="#d97706" opacity="0.1"/>
  <rect x="240" y="190" width="200" height="14" rx="4" fill="#d97706" opacity="0.1"/>
  <rect x="240" y="220" width="160" height="14" rx="4" fill="#d97706" opacity="0.1"/>
  <rect x="240" y="260" width="300" height="14" rx="4" fill="#d97706" opacity="0.08"/>
  <rect x="240" y="290" width="220" height="14" rx="4" fill="#d97706" opacity="0.08"/>
  <!-- Catégories -->
  <rect x="50" y="360" width="700" height="80" rx="8" fill="white" stroke="#fde68a" stroke-width="1"/>
  <text x="80" y="395" font-family="monospace" font-size="12" fill="#b45309">A    B    C    D    E    F</text>
  <rect x="70" y="410" width="30" height="16" rx="4" fill="#d97706" opacity="0.2"/>
  <rect x="130" y="410" width="30" height="16" rx="4" fill="#d97706" opacity="0.5"/>
  <!-- Footer -->
  <text x="400" y="470" font-family="system-ui,sans-serif" font-size="11" fill="#d97706" text-anchor="middle" opacity="0.6">Document de démonstration — DemDem Admin</text>
</svg>
